<svg version="1.1" id="Layer_1" xmlns="http://www.w3.org/2000/svg" xmlns:xlink="http://www.w3.org/1999/xlink" x="0px" y="0px"
	 width="100%" viewBox="0 0 512 512" enable-background="new 0 0 512 512" xml:space="preserve">
<path fill="#000000" opacity="1.000000" stroke="none" 
	d="
M513.000000,189.000000 
	C513.000000,297.307007 513.000000,405.114014 513.000000,512.960510 
	C342.401306,512.960510 171.802628,512.960510 1.101965,512.960510 
	C1.101965,342.443024 1.101965,171.885956 1.101965,1.164450 
	C171.666534,1.164450 342.333252,1.164450 513.000000,1.164450 
	C513.000000,63.530674 513.000000,126.015335 513.000000,189.000000 
M445.915833,145.469177 
	C445.624634,145.257874 445.333405,145.046570 444.745850,144.239990 
	C443.816864,143.104965 442.883148,141.973785 441.959717,140.834244 
	C437.656311,135.523605 433.355682,130.210709 428.981781,124.197189 
	C427.421539,121.720001 426.150848,118.991074 424.252747,116.807571 
	C413.992126,105.004173 403.763367,93.162766 393.150360,81.679466 
	C385.586609,73.495529 377.355743,65.932281 369.561096,57.956673 
	C355.494232,43.563145 339.370026,32.128048 320.946503,24.035929 
	C316.665924,22.155781 312.075897,20.980276 307.628235,19.480549 
	C307.356079,19.997156 307.083923,20.513763 306.811768,21.030371 
	C308.849792,23.925175 311.499756,26.570925 312.800171,29.765957 
	C315.620941,36.696312 317.751770,43.907478 320.039734,51.845856 
	C320.415009,55.232639 320.790253,58.619423 321.039429,62.933170 
	C321.081635,68.291214 321.123871,73.649254 321.040314,79.936203 
	C321.082123,88.293297 321.123901,96.650383 321.041016,105.936470 
	C321.026733,111.923180 320.660339,117.933716 321.063629,123.892166 
	C322.318298,142.428986 334.478119,154.751312 352.098145,155.842041 
	C365.014252,156.641586 378.025421,155.906235 391.923828,155.989014 
	C404.280670,155.938141 416.637543,155.887253 429.417358,155.977417 
	C429.417358,155.977417 429.858551,156.042038 430.062836,156.522736 
	C430.366608,156.640686 430.670380,156.758636 431.781799,157.000015 
	C433.142853,157.013229 434.503906,157.026443 436.066620,157.516830 
	C436.367950,157.631424 436.669281,157.746017 437.728790,158.014465 
	C444.809082,161.317688 451.889343,164.620895 459.391449,168.120926 
	C457.624207,159.044830 450.605438,153.166794 446.017212,145.911301 
	C446.017212,145.911301 446.072479,145.995972 445.915833,145.469177 
M94.063736,77.971802 
	C76.266563,77.979630 58.469387,77.981712 40.672222,77.998291 
	C34.154774,78.004356 32.999779,79.177567 32.997856,85.793610 
	C32.990837,109.911385 32.991135,134.029160 32.997581,158.146927 
	C32.999401,164.942917 34.098881,165.987747 41.111561,166.005966 
	C59.072193,166.052628 77.032806,166.105240 94.998734,167.073273 
	C94.999123,269.389282 95.040268,371.705292 94.957550,474.021240 
	C94.944611,490.033905 108.966797,504.056427 124.997818,504.043457 
	C229.480530,503.958832 333.963867,503.840790 438.445526,504.185577 
	C452.762909,504.232788 469.202789,489.643677 469.143677,473.214233 
	C468.835449,387.562775 469.015045,301.909637 468.957031,216.257095 
	C468.954010,211.829819 468.682404,207.341339 467.928925,202.986374 
	C464.320862,182.132553 447.086578,167.123367 425.747101,166.967590 
	C397.980042,166.764877 370.206390,166.623947 342.453583,165.827713 
	C333.799316,165.579407 326.540466,161.116776 320.651276,154.331116 
	C312.083313,144.458939 310.220581,132.638992 310.070801,120.376625 
	C309.814362,99.383209 310.102783,78.383766 309.974182,57.388016 
	C309.810638,30.687637 291.924286,14.356414 266.514771,14.122416 
	C219.859741,13.692764 173.194916,14.300571 126.540665,13.831005 
	C110.987984,13.674470 93.676079,28.744352 94.855537,45.360161 
	C95.620537,56.137245 94.995583,67.013000 94.063736,77.971802 
z"/>
<path fill="#E31E24" opacity="1.000000" stroke="none" 
	d="
M94.993416,77.844543 
	C94.995583,67.013000 95.620537,56.137245 94.855537,45.360161 
	C93.676079,28.744352 110.987984,13.674470 126.540665,13.831005 
	C173.194916,14.300571 219.859741,13.692764 266.514771,14.122416 
	C291.924286,14.356414 309.810638,30.687637 309.974182,57.388016 
	C310.102783,78.383766 309.814362,99.383209 310.070801,120.376625 
	C310.220581,132.638992 312.083313,144.458939 320.651276,154.331116 
	C326.540466,161.116776 333.799316,165.579407 342.453583,165.827713 
	C370.206390,166.623947 397.980042,166.764877 425.747101,166.967590 
	C447.086578,167.123367 464.320862,182.132553 467.928925,202.986374 
	C468.682404,207.341339 468.954010,211.829819 468.957031,216.257095 
	C469.015045,301.909637 468.835449,387.562775 469.143677,473.214233 
	C469.202789,489.643677 452.762909,504.232788 438.445526,504.185577 
	C333.963867,503.840790 229.480530,503.958832 124.997818,504.043457 
	C108.966797,504.056427 94.944611,490.033905 94.957550,474.021240 
	C95.040268,371.705292 94.999123,269.389282 95.459427,166.538239 
	C147.041840,165.983276 198.163574,165.966187 249.285309,165.940536 
	C257.572540,165.936371 259.123779,164.369675 259.127045,155.997665 
	C259.135895,133.350754 259.132812,110.703850 259.124573,88.056946 
	C259.121490,79.505798 257.633789,78.059402 248.845688,78.058441 
	C208.047958,78.053993 167.250198,78.070465 126.452492,78.046646 
	C115.966095,78.040527 105.479774,77.915138 94.993416,77.844543 
M176.972382,440.936646 
	C183.227509,436.878235 189.968781,433.399445 195.638885,428.643555 
	C208.318039,418.008667 216.284668,403.752350 224.329514,389.551849 
	C226.805786,385.180847 228.153107,379.952423 234.321350,377.709930 
	C260.104950,368.336060 287.156250,364.637390 313.798431,359.129181 
	C317.900665,358.281036 322.679810,357.798126 326.510956,359.065582 
	C340.900543,363.825867 354.867920,369.887787 369.318390,374.428009 
	C376.707184,376.749481 384.755402,377.290924 392.561829,377.847534 
	C397.415710,378.193634 402.093231,376.397522 404.186462,371.266449 
	C405.224487,368.721924 404.559601,366.817047 401.171387,367.039642 
	C395.584991,367.406708 389.992004,367.961487 384.403107,367.946381 
	C369.573853,367.906372 356.866211,360.772339 343.575714,355.388336 
	C363.763977,352.500488 383.790466,350.832214 403.484009,360.396240 
	C403.350922,355.019989 400.980896,352.082489 397.344696,350.898346 
	C390.263947,348.592468 383.057800,345.785004 375.751831,345.247192 
	C361.763031,344.217499 347.729523,345.059387 333.823425,347.735504 
	C330.644562,348.347260 326.272461,347.531342 323.680237,345.664032 
	C302.683441,330.538910 286.406555,311.461426 277.159027,287.003967 
	C275.917267,283.719818 275.657288,279.770813 276.005554,276.234375 
	C277.029083,265.840118 278.587830,255.498535 279.937012,245.136353 
	C279.466919,245.064972 278.996826,244.993607 278.526703,244.922241 
	C276.234192,252.209930 276.269196,260.276703 271.685699,267.861389 
	C271.081177,265.443848 270.864685,264.145538 270.434296,262.922516 
	C264.505096,246.073837 264.732330,228.584641 265.043457,211.092148 
	C265.060028,210.160767 265.380432,209.103271 265.902435,208.338684 
	C267.138855,206.527679 268.304260,203.990799 270.038910,203.435333 
	C271.196106,203.064789 274.032440,205.241669 274.818329,206.895691 
	C277.562836,212.671890 279.742645,218.716415 282.043854,224.427765 
	C282.043854,222.653580 281.879944,220.483871 282.070831,218.345840 
	C283.200806,205.688553 280.161041,202.821716 270.441376,201.851913 
	C262.659210,201.075409 253.765656,204.138931 253.711044,215.138824 
	C253.595505,238.421783 258.529572,260.753326 263.528961,283.185394 
	C264.015228,285.367249 264.169189,288.066772 263.323547,290.028687 
	C258.406433,301.436676 253.437363,312.840942 247.932159,323.972595 
	C238.869003,342.298492 229.653900,360.560455 219.996674,378.578033 
	C211.019241,395.327301 200.545837,411.226471 187.746185,425.290527 
	C182.757462,430.772095 176.729065,436.049774 168.005875,436.989899 
	C168.099777,434.950867 167.665268,432.937378 168.345703,431.425690 
	C173.668884,419.599457 180.845673,409.117035 191.126541,400.953430 
	C196.087250,397.014435 200.917038,392.910461 205.806091,388.881195 
	C188.579819,392.395386 164.888901,415.417694 159.346893,429.482635 
	C158.914642,430.579590 159.427750,432.426300 160.126343,433.528534 
	C163.830017,439.372162 169.492188,441.282776 176.972382,440.936646 
z"/>
<path fill="#C32122" opacity="1.000000" stroke="none" 
	d="
M320.164734,51.003830 
	C317.751770,43.907478 315.620941,36.696312 312.800171,29.765957 
	C311.499756,26.570925 308.849792,23.925175 306.811768,21.030371 
	C307.083923,20.513763 307.356079,19.997156 307.628235,19.480549 
	C312.075897,20.980276 316.665924,22.155781 320.946503,24.035929 
	C339.370026,32.128048 355.494232,43.563145 369.561096,57.956673 
	C377.355743,65.932281 385.586609,73.495529 393.150360,81.679466 
	C403.763367,93.162766 413.992126,105.004173 424.252747,116.807571 
	C426.150848,118.991074 427.421539,121.720001 428.736969,124.749138 
	C426.533264,124.784653 424.266418,124.732742 422.667694,123.672981 
	C414.903564,118.526390 407.267517,113.181198 399.679138,107.775772 
	C373.153625,88.880859 346.666473,69.932121 320.164734,51.003830 
z"/>
<path fill="#CE2023" opacity="1.000000" stroke="none" 
	d="
M321.165710,105.007477 
	C321.123901,96.650383 321.082123,88.293297 321.403992,79.600464 
	C323.822815,81.379021 325.604675,83.881996 327.974731,85.548347 
	C356.276276,105.446762 384.657349,125.232254 413.038513,145.017242 
	C418.309601,148.691818 423.673370,152.233414 428.994385,155.836380 
	C416.637543,155.887253 404.280670,155.938141 391.362793,155.601471 
	C389.874329,154.313950 389.046997,153.271301 388.002502,152.538055 
	C382.703552,148.818100 377.290894,145.258743 372.023285,141.495773 
	C355.045898,129.367798 338.114716,117.175186 321.165710,105.007477 
z"/>
<path fill="#C92123" opacity="1.000000" stroke="none" 
	d="
M429.205872,155.906891 
	C423.673370,152.233414 418.309601,148.691818 413.038513,145.017242 
	C384.657349,125.232254 356.276276,105.446762 327.974731,85.548347 
	C325.604675,83.881996 323.822815,81.379021 321.466919,79.136009 
	C321.123871,73.649254 321.081635,68.291214 321.402496,62.597950 
	C325.353455,65.622627 328.616211,69.438629 332.583374,72.266518 
	C354.215424,87.686394 376.014435,102.872169 397.768860,118.120193 
	C411.909851,128.031815 426.060547,137.929779 440.236572,147.791168 
	C442.919250,149.657303 445.789185,151.465836 446.102173,145.856522 
	C450.605438,153.166794 457.624207,159.044830 459.391449,168.120926 
	C451.889343,164.620895 444.809082,161.317688 437.179504,157.782471 
	C436.389740,157.358383 436.134644,157.188110 435.864960,157.039673 
	C434.503906,157.026443 433.142853,157.013229 431.206665,156.780426 
	C430.389038,156.365295 430.131378,156.192368 429.858551,156.042038 
	C429.858551,156.042038 429.417358,155.977417 429.205872,155.906891 
z"/>
<path fill="#D61F23" opacity="1.000000" stroke="none" 
	d="
M321.103363,105.471970 
	C338.114716,117.175186 355.045898,129.367798 372.023285,141.495773 
	C377.290894,145.258743 382.703552,148.818100 388.002502,152.538055 
	C389.046997,153.271301 389.874329,154.313950 390.898010,155.534454 
	C378.025421,155.906235 365.014252,156.641586 352.098145,155.842041 
	C334.478119,154.751312 322.318298,142.428986 321.063629,123.892166 
	C320.660339,117.933716 321.026733,111.923180 321.103363,105.471970 
z"/>
<path fill="#C52123" opacity="1.000000" stroke="none" 
	d="
M446.059692,145.883911 
	C445.789185,151.465836 442.919250,149.657303 440.236572,147.791168 
	C426.060547,137.929779 411.909851,128.031815 397.768860,118.120193 
	C376.014435,102.872169 354.215424,87.686394 332.583374,72.266518 
	C328.616211,69.438629 325.353455,65.622627 321.465515,62.134468 
	C320.790253,58.619423 320.415009,55.232639 320.102234,51.424843 
	C346.666473,69.932121 373.153625,88.880859 399.679138,107.775772 
	C407.267517,113.181198 414.903564,118.526390 422.667694,123.672981 
	C424.266418,124.732742 426.533264,124.784653 428.773132,125.099838 
	C433.355682,130.210709 437.656311,135.523605 441.959717,140.834244 
	C442.883148,141.973785 443.816864,143.104965 445.049652,144.744904 
	C445.593140,145.498520 445.832794,145.747253 446.072479,145.995972 
	C446.072479,145.995972 446.017212,145.911301 446.059692,145.883911 
z"/>
<path fill="#A09A9A" opacity="1.000000" stroke="none" 
	d="
M94.528580,77.908173 
	C105.479774,77.915138 115.966095,78.040527 126.452492,78.046646 
	C167.250198,78.070465 208.047958,78.053993 248.845688,78.058441 
	C257.633789,78.059402 259.121490,79.505798 259.124573,88.056946 
	C259.132812,110.703850 259.135895,133.350754 259.127045,155.997665 
	C259.123779,164.369675 257.572540,165.936371 249.285309,165.940536 
	C198.163574,165.966187 147.041840,165.983276 95.456772,166.079346 
	C77.032806,166.105240 59.072193,166.052628 41.111561,166.005966 
	C34.098881,165.987747 32.999401,164.942917 32.997581,158.146927 
	C32.991135,134.029160 32.990837,109.911385 32.997856,85.793610 
	C32.999779,79.177567 34.154774,78.004356 40.672222,77.998291 
	C58.469387,77.981712 76.266563,77.979630 94.528580,77.908173 
M35.057034,122.895531 
	C35.078285,126.929459 35.099537,130.963379 35.060780,135.925079 
	C35.069843,140.276321 35.078903,144.627563 35.040035,149.890213 
	C35.031147,152.055313 35.013657,154.220428 35.015209,156.385529 
	C35.018211,160.577499 37.478233,162.804596 41.237080,163.684937 
	C42.988174,164.095047 44.878654,163.983612 46.705982,163.983948 
	C113.166634,163.996582 179.627289,163.994858 246.087936,163.992004 
	C247.420151,163.991943 248.755722,164.008987 250.083969,163.925934 
	C254.426895,163.654343 256.826965,161.390015 256.969482,156.972778 
	C257.033875,154.977051 256.956482,152.976746 256.978882,150.047226 
	C256.970642,144.360962 256.962402,138.674713 256.999084,132.083023 
	C256.978516,129.052231 256.957947,126.021446 256.993134,122.066696 
	C256.973297,118.039940 256.953461,114.013191 256.995850,109.056114 
	C256.977386,104.034508 256.958954,99.012909 257.014587,93.091515 
	C257.246490,81.539612 255.926605,80.181885 244.395813,80.113167 
	C243.729324,80.109192 243.062790,80.111641 242.396286,80.111641 
	C178.077942,80.111603 113.759598,80.109772 49.441250,80.113113 
	C35.773098,80.113823 34.491859,81.461037 35.099743,95.878624 
	C35.125061,98.909180 35.150379,101.939743 35.081718,105.904907 
	C35.103561,111.258766 35.125404,116.612625 35.057034,122.895531 
z"/>
<path fill="#C92123" opacity="1.000000" stroke="none" 
	d="
M445.994141,145.732574 
	C445.832794,145.747253 445.593140,145.498520 445.197815,145.042542 
	C445.333405,145.046570 445.624634,145.257874 445.994141,145.732574 
z"/>
<path fill="#CE2023" opacity="1.000000" stroke="none" 
	d="
M429.960693,156.282379 
	C430.131378,156.192368 430.389038,156.365295 430.802856,156.718719 
	C430.670380,156.758636 430.366608,156.640686 429.960693,156.282379 
z"/>
<path fill="#CE2023" opacity="1.000000" stroke="none" 
	d="
M435.965790,157.278259 
	C436.134644,157.188110 436.389740,157.358383 436.800415,157.705536 
	C436.669281,157.746017 436.367950,157.631424 435.965790,157.278259 
z"/>
<path fill="#000000" opacity="1.000000" stroke="none" 
	d="
M176.548492,440.962097 
	C169.492188,441.282776 163.830017,439.372162 160.126343,433.528534 
	C159.427750,432.426300 158.914642,430.579590 159.346893,429.482635 
	C164.888901,415.417694 188.579819,392.395386 205.806091,388.881195 
	C200.917038,392.910461 196.087250,397.014435 191.126541,400.953430 
	C180.845673,409.117035 173.668884,419.599457 168.345703,431.425690 
	C167.665268,432.937378 168.099777,434.950867 168.005875,436.989899 
	C176.729065,436.049774 182.757462,430.772095 187.746185,425.290527 
	C200.545837,411.226471 211.019241,395.327301 219.996674,378.578033 
	C229.653900,360.560455 238.869003,342.298492 247.932159,323.972595 
	C253.437363,312.840942 258.406433,301.436676 263.323547,290.028687 
	C264.169189,288.066772 264.015228,285.367249 263.528961,283.185394 
	C258.529572,260.753326 253.595505,238.421783 253.711044,215.138824 
	C253.765656,204.138931 262.659210,201.075409 270.441376,201.851913 
	C280.161041,202.821716 283.200806,205.688553 282.070831,218.345840 
	C281.879944,220.483871 282.043854,222.653580 282.043854,224.427765 
	C279.742645,218.716415 277.562836,212.671890 274.818329,206.895691 
	C274.032440,205.241669 271.196106,203.064789 270.038910,203.435333 
	C268.304260,203.990799 267.138855,206.527679 265.902435,208.338684 
	C265.380432,209.103271 265.060028,210.160767 265.043457,211.092148 
	C264.732330,228.584641 264.505096,246.073837 270.434296,262.922516 
	C270.864685,264.145538 271.081177,265.443848 271.685699,267.861389 
	C276.269196,260.276703 276.234192,252.209930 278.526703,244.922241 
	C278.996826,244.993607 279.466919,245.064972 279.937012,245.136353 
	C278.587830,255.498535 277.029083,265.840118 276.005554,276.234375 
	C275.657288,279.770813 275.917267,283.719818 277.159027,287.003967 
	C286.406555,311.461426 302.683441,330.538910 323.680237,345.664032 
	C326.272461,347.531342 330.644562,348.347260 333.823425,347.735504 
	C347.729523,345.059387 361.763031,344.217499 375.751831,345.247192 
	C383.057800,345.785004 390.263947,348.592468 397.344696,350.898346 
	C400.980896,352.082489 403.350922,355.019989 403.484009,360.396240 
	C383.790466,350.832214 363.763977,352.500488 343.575714,355.388336 
	C356.866211,360.772339 369.573853,367.906372 384.403107,367.946381 
	C389.992004,367.961487 395.584991,367.406708 401.171387,367.039642 
	C404.559601,366.817047 405.224487,368.721924 404.186462,371.266449 
	C402.093231,376.397522 397.415710,378.193634 392.561829,377.847534 
	C384.755402,377.290924 376.707184,376.749481 369.318390,374.428009 
	C354.867920,369.887787 340.900543,363.825867 326.510956,359.065582 
	C322.679810,357.798126 317.900665,358.281036 313.798431,359.129181 
	C287.156250,364.637390 260.104950,368.336060 234.321350,377.709930 
	C228.153107,379.952423 226.805786,385.180847 224.329514,389.551849 
	C216.284668,403.752350 208.318039,418.008667 195.638885,428.643555 
	C189.968781,433.399445 183.227509,436.878235 176.548492,440.962097 
M252.503387,338.995728 
	C246.406281,350.498138 240.309158,362.000549 233.659164,374.545990 
	C260.587738,365.275970 286.282959,355.749054 314.345856,351.551514 
	C295.487579,337.581665 281.316223,320.605957 270.059662,300.344971 
	C264.121613,313.510864 258.518066,325.935059 252.503387,338.995728 
z"/>
<path fill="#D4D5D5" opacity="1.000000" stroke="none" 
	d="
M35.216595,94.972137 
	C34.491859,81.461037 35.773098,80.113823 49.441250,80.113113 
	C113.759598,80.109772 178.077942,80.111603 242.396286,80.111641 
	C243.062790,80.111641 243.729324,80.109192 244.395813,80.113167 
	C255.926605,80.181885 257.246490,81.539612 256.514191,93.544334 
	C248.594147,93.998917 241.172043,93.885590 233.755783,94.044853 
	C229.181244,94.143089 224.615662,94.656891 219.574432,94.986069 
	C207.477692,94.988281 195.852509,95.007912 184.227493,94.971817 
	C182.008987,94.964935 179.771942,94.710823 179.497375,97.998352 
	C173.699432,98.327660 168.365387,98.656876 162.688232,98.886581 
	C158.115738,97.535919 153.945587,95.539680 149.643936,95.197807 
	C142.058838,94.594978 134.393082,94.956421 126.762245,95.031410 
	C125.546585,95.043350 124.336922,95.666496 122.653671,96.005905 
	C117.399445,96.359314 112.616020,96.713890 107.454086,97.010620 
	C103.863144,96.305016 100.663185,95.184784 97.435898,95.099548 
	C88.347435,94.859535 79.247719,95.045113 69.674362,95.050873 
	C57.869724,95.016594 46.543159,94.994362 35.216595,94.972137 
z"/>
<path fill="#B5B6B6" opacity="1.000000" stroke="none" 
	d="
M256.943451,150.978516 
	C256.956482,152.976746 257.033875,154.977051 256.969482,156.972778 
	C256.826965,161.390015 254.426895,163.654343 250.083969,163.925934 
	C248.755722,164.008987 247.420151,163.991943 246.087936,163.992004 
	C179.627289,163.994858 113.166634,163.996582 46.705982,163.983948 
	C44.878654,163.983612 42.988174,164.095047 41.237080,163.684937 
	C37.478233,162.804596 35.018211,160.577499 35.015209,156.385529 
	C35.013657,154.220428 35.031147,152.055313 35.424683,149.543823 
	C38.526165,149.797333 41.247772,150.931015 43.959030,150.906754 
	C57.264660,150.787827 70.567291,150.126617 83.871460,150.112579 
	C95.842361,150.099930 107.812912,150.761703 119.786240,150.902359 
	C121.523300,150.922760 123.275017,149.695114 125.486511,149.038635 
	C134.302048,149.023163 142.651031,149.014053 151.188599,149.341034 
	C153.401642,150.117188 155.423523,150.924683 157.450928,150.938782 
	C172.843613,151.045700 188.237381,150.999786 203.630814,150.996735 
	C221.401688,150.993210 239.172577,150.984802 256.943451,150.978516 
z"/>
<path fill="#BDBEBE" opacity="1.000000" stroke="none" 
	d="
M256.961182,150.512878 
	C239.172577,150.984802 221.401688,150.993210 203.630814,150.996735 
	C188.237381,150.999786 172.843613,151.045700 157.450928,150.938782 
	C155.423523,150.924683 153.401642,150.117188 151.185333,149.131744 
	C150.993469,148.586380 150.985718,148.167938 151.345810,147.990082 
	C152.435150,147.472504 153.151260,146.870544 153.895676,146.833206 
	C162.375549,146.407867 167.158386,141.389435 170.469345,133.910080 
	C173.892136,133.550415 176.922119,133.272812 180.052765,133.451752 
	C180.153397,138.290207 180.153397,142.672119 180.153397,146.906311 
	C186.066193,146.906311 191.085007,146.906311 196.344116,146.906311 
	C196.344116,140.985535 196.237320,135.528000 196.419983,130.080185 
	C196.465042,128.736542 197.451767,127.424469 197.993622,126.526726 
	C197.245178,131.922470 199.692429,133.129578 204.277328,133.078247 
	C221.834427,132.881653 239.394943,132.992416 256.954163,132.988449 
	C256.962402,138.674713 256.970642,144.360962 256.961182,150.512878 
z"/>
<path fill="#BDBEBE" opacity="1.000000" stroke="none" 
	d="
M125.019951,149.044983 
	C123.275017,149.695114 121.523300,150.922760 119.786240,150.902359 
	C107.812912,150.761703 95.842361,150.099930 83.871460,150.112579 
	C70.567291,150.126617 57.264660,150.787827 43.959030,150.906754 
	C41.247772,150.931015 38.526165,149.797333 35.448647,149.088120 
	C35.078903,144.627563 35.069843,140.276321 35.485809,135.554810 
	C37.691177,135.453903 39.469719,135.941559 41.252140,135.956207 
	C50.789410,136.034607 60.327644,135.994980 69.941010,136.454956 
	C70.016479,140.326385 70.016479,143.739044 70.016479,147.079605 
	C75.756912,147.079605 80.691368,147.079605 85.751923,147.079605 
	C85.971031,145.521698 86.152061,144.234482 86.620583,142.720764 
	C87.272942,139.472488 87.871513,136.455887 87.938354,133.427551 
	C88.008179,130.263596 89.335976,129.227646 92.416534,129.036346 
	C97.279510,128.734344 102.110123,127.911179 107.339485,127.454422 
	C112.857834,127.738396 117.991135,127.876564 123.249794,128.467773 
	C123.592415,135.103348 123.809669,141.285843 124.121582,147.683716 
	C124.484146,148.281052 124.752045,148.663010 125.019951,149.044983 
z"/>
<path fill="#CFD0D0" opacity="1.000000" stroke="none" 
	d="
M220.046051,94.984116 
	C224.615662,94.656891 229.181244,94.143089 233.755783,94.044853 
	C241.172043,93.885590 248.594147,93.998917 256.477173,93.994232 
	C256.958954,99.012909 256.977386,104.034508 256.502319,109.524734 
	C238.542206,109.996162 221.074860,110.085213 203.609528,109.936531 
	C199.625366,109.902611 197.573288,111.117424 197.484802,115.287003 
	C194.079300,108.235107 195.275848,106.100624 202.206421,106.095695 
	C208.132843,106.091484 214.059265,106.094818 220.046051,106.094818 
	C220.046051,101.930588 220.046051,98.457352 220.046051,94.984116 
z"/>
<path fill="#C8C9C9" opacity="1.000000" stroke="none" 
	d="
M197.919800,115.292786 
	C197.573288,111.117424 199.625366,109.902611 203.609528,109.936531 
	C221.074860,110.085213 238.542206,109.996162 256.471191,109.989891 
	C256.953461,114.013191 256.973297,118.039940 256.502747,122.530975 
	C243.066162,122.994949 230.119919,122.994644 217.106567,122.539787 
	C217.039444,120.000130 217.039444,117.915016 217.039444,115.292786 
	C210.164490,115.292786 204.042145,115.292786 197.919800,115.292786 
z"/>
<path fill="#C8C9C9" opacity="1.000000" stroke="none" 
	d="
M35.147247,121.966476 
	C35.125404,116.612625 35.103561,111.258766 35.581364,105.445892 
	C47.345493,104.989044 58.609982,104.991211 69.953598,105.455536 
	C69.978523,111.275978 69.924324,116.634270 69.409615,121.995316 
	C57.681820,121.987549 46.414532,121.977013 35.147247,121.966476 
z"/>
<path fill="#C3C4C4" opacity="1.000000" stroke="none" 
	d="
M217.173706,122.994339 
	C230.119919,122.994644 243.066162,122.994949 256.474884,122.992958 
	C256.957947,126.021446 256.978516,129.052231 256.976624,132.535736 
	C239.394943,132.992416 221.834427,132.881653 204.277328,133.078247 
	C199.692429,133.129578 197.245178,131.922470 198.458496,126.468857 
	C203.980240,125.974876 209.035782,126.138390 214.061707,125.825768 
	C215.153519,125.757858 216.139160,123.983017 217.173706,122.994339 
z"/>
<path fill="#C0C1C1" opacity="1.000000" stroke="none" 
	d="
M35.102142,122.431000 
	C46.414532,121.977013 57.681820,121.987549 69.488258,122.454681 
	C69.973457,127.272911 69.919502,131.634537 69.865547,135.996155 
	C60.327644,135.994980 50.789410,136.034607 41.252140,135.956207 
	C39.469719,135.941559 37.691177,135.453903 35.515816,135.090927 
	C35.099537,130.963379 35.078285,126.929459 35.102142,122.431000 
z"/>
<path fill="#CFD0D0" opacity="1.000000" stroke="none" 
	d="
M69.874466,104.993385 
	C58.609982,104.991211 47.345493,104.989044 35.628353,104.978592 
	C35.150379,101.939743 35.125061,98.909180 35.158169,95.425385 
	C46.543159,94.994362 57.869724,95.016594 69.633209,95.499451 
	C70.004906,98.971191 69.939682,101.982285 69.874466,104.993385 
z"/>
<path fill="#E31E24" opacity="1.000000" stroke="none" 
	d="
M252.708954,338.677490 
	C258.518066,325.935059 264.121613,313.510864 270.059662,300.344971 
	C281.316223,320.605957 295.487579,337.581665 314.345856,351.551514 
	C286.282959,355.749054 260.587738,365.275970 233.659164,374.545990 
	C240.309158,362.000549 246.406281,350.498138 252.708954,338.677490 
z"/>
<path fill="#2F2E2D" opacity="1.000000" stroke="none" 
	d="
M124.026932,147.468353 
	C123.809669,141.285843 123.592415,135.103348 123.354523,128.013550 
	C123.257843,123.073357 123.181808,119.040436 123.219612,114.550644 
	C123.263794,108.064873 123.194145,102.035980 123.124496,96.007080 
	C124.336922,95.666496 125.546585,95.043350 126.762245,95.031410 
	C134.393082,94.956421 142.058838,94.594978 149.643936,95.197807 
	C153.945587,95.539680 158.115738,97.535919 162.845795,99.181870 
	C165.877853,103.719154 168.409241,107.861626 170.918106,112.435814 
	C170.622574,119.909065 170.349564,126.950600 170.076553,133.992142 
	C167.158386,141.389435 162.375549,146.407867 153.895676,146.833206 
	C153.151260,146.870544 152.435150,147.472504 150.961334,147.809357 
	C141.486816,147.693771 132.756882,147.581070 124.026932,147.468353 
M140.168976,107.963242 
	C139.889099,108.328568 139.368149,108.691673 139.364792,109.059540 
	C139.290695,117.141472 139.225647,125.224525 139.325180,133.305313 
	C139.334564,134.067337 140.448181,134.815735 141.878494,135.676987 
	C152.925049,135.415894 155.379562,132.966888 155.382095,122.050995 
	C155.382584,119.893417 155.287735,117.709435 154.950867,115.582932 
	C153.785187,108.224724 148.081192,105.181953 140.168976,107.963242 
z"/>
<path fill="#2D2C2B" opacity="1.000000" stroke="none" 
	d="
M69.953598,105.455536 
	C69.939682,101.982285 70.004906,98.971191 70.111282,95.511505 
	C79.247719,95.045113 88.347435,94.859535 97.435898,95.099548 
	C100.663185,95.184784 103.863144,96.305016 107.645576,97.294144 
	C115.273132,102.522446 114.880455,109.699303 114.024994,117.196671 
	C113.877586,117.588272 113.865570,117.760002 113.616081,118.099442 
	C113.199974,118.813606 113.021339,119.360069 112.888931,119.901199 
	C112.935150,119.895874 112.922310,119.803703 112.671631,120.018272 
	C112.093636,120.809097 111.766327,121.385353 111.216171,122.084412 
	C110.310074,122.948418 109.626808,123.689606 108.641884,124.578674 
	C107.814110,125.118675 107.288002,125.510788 106.812599,125.907425 
	C106.863312,125.911949 106.869385,125.810303 106.484680,125.879181 
	C99.621620,126.913872 93.143257,127.879669 86.333092,128.894943 
	C86.333092,133.362427 86.333092,138.154846 86.333092,142.947266 
	C86.152061,144.234482 85.971031,145.521698 85.751923,147.079605 
	C80.691368,147.079605 75.756912,147.079605 70.016479,147.079605 
	C70.016479,143.739044 70.016479,140.326385 69.941010,136.454956 
	C69.919502,131.634537 69.973457,127.272911 69.948769,122.451920 
	C69.924324,116.634270 69.978523,111.275978 69.953598,105.455536 
M89.413406,117.418373 
	C91.369072,117.178589 93.720734,117.525742 95.175819,116.544014 
	C96.832779,115.426071 98.539207,113.168739 98.640335,111.320007 
	C98.730171,109.677879 96.945358,106.837334 95.470543,106.438301 
	C92.583618,105.657204 89.336090,106.208862 86.131348,106.208862 
	C86.131348,109.434998 85.908722,112.098602 86.244278,114.689941 
	C86.372978,115.683868 87.775452,116.512863 89.413406,117.418373 
z"/>
<path fill="#2D2C2B" opacity="1.000000" stroke="none" 
	d="
M217.106567,122.539795 
	C216.139160,123.983017 215.153519,125.757858 214.061707,125.825768 
	C209.035782,126.138390 203.980240,125.974876 198.470459,126.040024 
	C197.451767,127.424469 196.465042,128.736542 196.419983,130.080185 
	C196.237320,135.528000 196.344116,140.985535 196.344116,146.906311 
	C191.085007,146.906311 186.066193,146.906311 180.153397,146.906311 
	C180.153397,142.672119 180.153397,138.290207 180.136871,132.990051 
	C180.066925,125.047081 180.013504,118.022377 180.048645,110.541794 
	C180.078568,106.056702 180.019913,102.027489 179.961273,97.998268 
	C179.771942,94.710823 182.008987,94.964935 184.227493,94.971817 
	C195.852509,95.007912 207.477692,94.988281 219.574432,94.986069 
	C220.046051,98.457352 220.046051,101.930588 220.046051,106.094818 
	C214.059265,106.094818 208.132843,106.091484 202.206421,106.095695 
	C195.275848,106.100624 194.079300,108.235107 197.484802,115.287003 
	C204.042145,115.292786 210.164490,115.292786 217.039444,115.292786 
	C217.039444,117.915016 217.039444,120.000130 217.106567,122.539795 
z"/>
<path fill="#CFD0D0" opacity="1.000000" stroke="none" 
	d="
M114.160393,116.976791 
	C114.880455,109.699303 115.273132,102.522446 108.024094,97.351990 
	C112.616020,96.713890 117.399445,96.359314 122.653679,96.005905 
	C123.194145,102.035980 123.263794,108.064873 122.798485,114.547668 
	C119.562477,115.659973 116.861435,116.318382 114.160393,116.976791 
z"/>
<path fill="#CFD0D0" opacity="1.000000" stroke="none" 
	d="
M179.497375,97.998352 
	C180.019913,102.027489 180.078568,106.056702 179.629257,110.542542 
	C176.394409,111.334145 173.667511,111.669128 170.940628,112.004105 
	C168.409241,107.861626 165.877853,103.719154 163.188904,99.281387 
	C168.365387,98.656876 173.699432,98.327660 179.497375,97.998352 
z"/>
<path fill="#C8C9C9" opacity="1.000000" stroke="none" 
	d="
M124.121582,147.683716 
	C132.756882,147.581070 141.486816,147.693771 150.601242,147.987213 
	C150.985718,148.167938 150.993469,148.586380 150.996735,148.795654 
	C142.651031,149.014053 134.302048,149.023163 125.486511,149.038635 
	C124.752045,148.663010 124.484146,148.281052 124.121582,147.683716 
z"/>
<path fill="#C8C9C9" opacity="1.000000" stroke="none" 
	d="
M170.918106,112.435822 
	C173.667511,111.669128 176.394409,111.334145 179.540680,110.998413 
	C180.013504,118.022377 180.066925,125.047081 180.036224,132.533508 
	C176.922119,133.272812 173.892136,133.550415 170.469345,133.910080 
	C170.349564,126.950600 170.622574,119.909065 170.918106,112.435822 
z"/>
<path fill="#C8C9C9" opacity="1.000000" stroke="none" 
	d="
M114.024994,117.196671 
	C116.861435,116.318382 119.562477,115.659973 122.684647,115.004547 
	C123.181808,119.040436 123.257843,123.073357 123.229156,127.560501 
	C117.991135,127.876564 112.857834,127.738396 107.338768,127.077705 
	C106.925133,126.306885 106.897263,126.058594 106.869385,125.810303 
	C106.869385,125.810303 106.863312,125.911949 107.134361,125.804764 
	C107.918121,125.275314 108.430832,124.853050 108.943542,124.430794 
	C109.626808,123.689606 110.310074,122.948418 111.476776,121.866493 
	C112.280914,120.951744 112.601616,120.377724 112.922310,119.803703 
	C112.922310,119.803703 112.935150,119.895874 113.142128,119.866585 
	C113.517250,119.202110 113.685394,118.566925 113.853546,117.931740 
	C113.865570,117.760002 113.877586,117.588272 114.024994,117.196671 
z"/>
<path fill="#D4D5D5" opacity="1.000000" stroke="none" 
	d="
M106.484680,125.879181 
	C106.897263,126.058594 106.925133,126.306885 106.953712,126.931892 
	C102.110123,127.911179 97.279510,128.734344 92.416534,129.036346 
	C89.335976,129.227646 88.008179,130.263596 87.938354,133.427551 
	C87.871513,136.455887 87.272942,139.472488 86.620583,142.720764 
	C86.333092,138.154846 86.333092,133.362427 86.333092,128.894943 
	C93.143257,127.879669 99.621620,126.913872 106.484680,125.879181 
z"/>
<path fill="#C3C4C4" opacity="1.000000" stroke="none" 
	d="
M141.005432,108.040817 
	C148.081192,105.181953 153.785187,108.224724 154.950867,115.582932 
	C155.287735,117.709435 155.382584,119.893417 155.382095,122.050995 
	C155.379562,132.966888 152.925049,135.415894 141.437836,135.183258 
	C140.999939,125.806633 141.002686,116.923729 141.005432,108.040817 
z"/>
<path fill="#B5B6B6" opacity="1.000000" stroke="none" 
	d="
M140.587189,108.002029 
	C141.002686,116.923729 140.999939,125.806633 141.023163,135.130005 
	C140.448181,134.815735 139.334564,134.067337 139.325180,133.305313 
	C139.225647,125.224525 139.290695,117.141472 139.364792,109.059540 
	C139.368149,108.691673 139.889099,108.328568 140.587189,108.002029 
z"/>
<path fill="#C8C9C9" opacity="1.000000" stroke="none" 
	d="
M89.005455,117.417694 
	C87.775452,116.512863 86.372978,115.683868 86.244278,114.689941 
	C85.908722,112.098602 86.131348,109.434998 86.131348,106.208862 
	C89.336090,106.208862 92.583618,105.657204 95.470543,106.438301 
	C96.945358,106.837334 98.730171,109.677879 98.640335,111.320007 
	C98.539207,113.168739 96.832779,115.426071 95.175819,116.544014 
	C93.720734,117.525742 91.369072,117.178589 89.005455,117.417694 
z"/>
<path fill="#D4D5D5" opacity="1.000000" stroke="none" 
	d="
M113.616074,118.099442 
	C113.685394,118.566925 113.517250,119.202110 113.095901,119.871910 
	C113.021339,119.360069 113.199974,118.813606 113.616074,118.099442 
z"/>
<path fill="#D4D5D5" opacity="1.000000" stroke="none" 
	d="
M108.641884,124.578674 
	C108.430832,124.853050 107.918121,125.275314 107.083649,125.800240 
	C107.288002,125.510788 107.814110,125.118675 108.641884,124.578674 
z"/>
<path fill="#D4D5D5" opacity="1.000000" stroke="none" 
	d="
M112.671631,120.018272 
	C112.601616,120.377724 112.280914,120.951744 111.699615,121.743683 
	C111.766327,121.385353 112.093636,120.809097 112.671631,120.018272 
z"/>
</svg>